#tb 0: 1/600
0,          0,          0,        1,   115200, 0x2c810465
0,         20,         20,        1,   115200, 0x010b5765
0,         40,         40,        1,   115200, 0x2be11a4e
0,         60,         60,        1,   115200, 0x99445d06
0,         80,         80,        1,   115200, 0x6b54d83c
0,        100,        100,        1,   115200, 0x3832b76a
0,        120,        120,        1,   115200, 0x3832b76a
0,        140,        140,        1,   115200, 0xe18385db
0,        160,        160,        1,   115200, 0x847d4bf0
0,        180,        180,        1,   115200, 0x0d650f50
0,        200,        200,        1,   115200, 0x4b85c44c
0,        220,        220,        1,   115200, 0xce1927a6
0,        240,        240,        1,   115200, 0x89353747
0,        260,        260,        1,   115200, 0x58da43f2
0,        280,        280,        1,   115200, 0xee9a4eef
0,        300,        300,        1,   115200, 0xce9453d9
0,        320,        320,        1,   115200, 0x804a5eb0
0,        340,        340,        1,   115200, 0xb3d46605
0,        360,        360,        1,   115200, 0x45b5668e
0,        380,        380,        1,   115200, 0xdd0d4c5a
0,        400,        400,        1,   115200, 0x99101301
0,        420,        420,        1,   115200, 0xf0c3f272
0,        440,        440,        1,   115200, 0xea21f8b1
0,        460,        460,        1,   115200, 0xd8e7fbb1
0,        480,        480,        1,   115200, 0x89d90aa1
0,        500,        500,        1,   115200, 0x882e19da
0,        520,        520,        1,   115200, 0xfc0f2709
0,        540,        540,        1,   115200, 0x9b732f3f
0,        560,        560,        1,   115200, 0xec453cda
0,        580,        580,        1,   115200, 0xa77e4989
0,        600,        600,        1,   115200, 0xad935834
0,        620,        620,        1,   115200, 0x3a5a6177
0,        640,        640,        1,   115200, 0xd3c07999
0,        660,        660,        1,   115200, 0xfad388dd
0,        680,        680,        1,   115200, 0xaf6e9520
0,        700,        700,        1,   115200, 0xdb64a4b3
0,        720,        720,        1,   115200, 0xc6f9b49e
0,        740,        740,        1,   115200, 0x4446c315
0,        760,        760,        1,   115200, 0x660bd01c
0,        780,        780,        1,   115200, 0x963fdd7d
0,        800,        800,        1,   115200, 0x8733e7b3
0,        820,        820,        1,   115200, 0x41aaf1d5
0,        840,        840,        1,   115200, 0xa803fd81
0,        860,        860,        1,   115200, 0xe2b4077f
0,        880,        880,        1,   115200, 0xfe6707cb
0,        900,        900,        1,   115200, 0x027c122d
0,        920,        920,        1,   115200, 0xbcb81ea8
0,        940,        940,        1,   115200, 0xd2ac2405
0,        960,        960,        1,   115200, 0x3d893006
0,        980,        980,        1,   115200, 0xbdcc3ba8
0,       1000,       1000,        1,   115200, 0x83ed4c6b
0,       1020,       1020,        1,   115200, 0x69ee5e7c
0,       1040,       1040,        1,   115200, 0xfe317411
0,       1060,       1060,        1,   115200, 0x849e84e6
0,       1080,       1080,        1,   115200, 0x040f945f
0,       1100,       1100,        1,   115200, 0x6481ac89
0,       1120,       1120,        1,   115200, 0x8a48be9e
0,       1140,       1140,        1,   115200, 0xb162ce94
0,       1160,       1160,        1,   115200, 0x178dd69a
0,       1180,       1180,        1,   115200, 0x64fdecaa
0,       1200,       1200,        1,   115200, 0x4b51297e
0,       1220,       1220,        1,   115200, 0x3d39a1ae
0,       1240,       1240,        1,   115200, 0x900fd939
0,       1260,       1260,        1,   115200, 0x7704fb19
0,       1280,       1280,        1,   115200, 0xa426137e
0,       1300,       1300,        1,   115200, 0x9a112706
0,       1320,       1320,        1,   115200, 0x294931f7
0,       1340,       1340,        1,   115200, 0x0d0e4372
0,       1360,       1360,        1,   115200, 0x33bd50e4
0,       1380,       1380,        1,   115200, 0x9c86e3e2
0,       1400,       1400,        1,   115200, 0x714af5d5
0,       1420,       1420,        1,   115200, 0xc5f9fcd0
0,       1440,       1440,        1,   115200, 0x184602bb
0,       1460,       1460,        1,   115200, 0x6958e9e6
0,       1480,       1480,        1,   115200, 0x5a214952
0,       1500,       1500,        1,   115200, 0x706cca0e
0,       1520,       1520,        1,   115200, 0x67689363
0,       1540,       1540,        1,   115200, 0x459f410c
0,       1560,       1560,        1,   115200, 0xa8f4c365
0,       1580,       1580,        1,   115200, 0xf1fc50c5
0,       1600,       1600,        1,   115200, 0xc22af545
0,       1620,       1620,        1,   115200, 0xd39802a2
0,       1640,       1640,        1,   115200, 0xb76c04b6
0,       1660,       1660,        1,   115200, 0x7a548db4
0,       1680,       1680,        1,   115200, 0x79e56765
0,       1700,       1700,        1,   115200, 0x3f273a17
0,       1720,       1720,        1,   115200, 0xe04366db
0,       1740,       1740,        1,   115200, 0x8e10939b
0,       1760,       1760,        1,   115200, 0x49220ea2
0,       1780,       1780,        1,   115200, 0x35361889
0,       1800,       1800,        1,   115200, 0x9b20bdfa
0,       1820,       1820,        1,   115200, 0x5d472eaf
0,       1840,       1840,        1,   115200, 0xeda43081
0,       1860,       1860,        1,   115200, 0x59bae8b4
0,       1880,       1880,        1,   115200, 0xf126d6a4
0,       1900,       1900,        1,   115200, 0x18106464
0,       1920,       1920,        1,   115200, 0x85530c73
0,       1940,       1940,        1,   115200, 0xcef32c78
0,       1960,       1960,        1,   115200, 0xfd6233a0
0,       1980,       1980,        1,   115200, 0xae9d6fc3
0,       2000,       2000,        1,   115200, 0x3d0cce10
0,       2020,       2020,        1,   115200, 0xfce5f124
0,       2040,       2040,        1,   115200, 0x90b10802
0,       2060,       2060,        1,   115200, 0xeea44201
0,       2080,       2080,        1,   115200, 0x1cefb56d
0,       2100,       2100,        1,   115200, 0xd6daa0b1
0,       2120,       2120,        1,   115200, 0xd700cef4
0,       2140,       2140,        1,   115200, 0x36dbf58f
0,       2160,       2160,        1,   115200, 0xdb20d060
0,       2180,       2180,        1,   115200, 0x5ca61fd5
0,       2200,       2200,        1,   115200, 0x4f271361
0,       2220,       2220,        1,   115200, 0xcaf03743
0,       2240,       2240,        1,   115200, 0x520f351a
0,       2260,       2260,        1,   115200, 0x40bc7b89
0,       2280,       2280,        1,   115200, 0xd0af0b08
0,       2300,       2300,        1,   115200, 0x6a45290c
0,       2320,       2320,        1,   115200, 0x57210c14
0,       2340,       2340,        1,   115200, 0xc1e233f9
0,       2360,       2360,        1,   115200, 0x96fdfc54
0,       2380,       2380,        1,   115200, 0x43a8359c
0,       2400,       2400,        1,   115200, 0xd493bfde
0,       2420,       2420,        1,   115200, 0xd5339d13
0,       2440,       2440,        1,   115200, 0x7542baa0
0,       2460,       2460,        1,   115200, 0x268d2cb9
0,       2480,       2480,        1,   115200, 0xaf3888bb
0,       2500,       2500,        1,   115200, 0xb82f520a
0,       2520,       2520,        1,   115200, 0x0feb2981
0,       2540,       2540,        1,   115200, 0x45314b58
0,       2560,       2560,        1,   115200, 0xb26a193a
0,       2580,       2580,        1,   115200, 0xdfdffc38
0,       2600,       2600,        1,   115200, 0xec6a55f5
0,       2620,       2620,        1,   115200, 0xf6e35716
0,       2640,       2640,        1,   115200, 0x5ce8544e
0,       2660,       2660,        1,   115200, 0x3e38ddce
0,       2680,       2680,        1,   115200, 0x964a2006
0,       2700,       2700,        1,   115200, 0xaba138d6
0,       2720,       2720,        1,   115200, 0x2f46949c
0,       2740,       2740,        1,   115200, 0xbdbdb587
0,       2760,       2760,        1,   115200, 0x1bf11e1d
0,       2780,       2780,        1,   115200, 0x2632f558
0,       2800,       2800,        1,   115200, 0x0e58078b
0,       2820,       2820,        1,   115200, 0x2ab2f9be
0,       2840,       2840,        1,   115200, 0x9205f1d8
0,       2860,       2860,        1,   115200, 0x6a4bd949
0,       2880,       2880,        1,   115200, 0xedc1552f
0,       2900,       2900,        1,   115200, 0x0a60974d
0,       2920,       2920,        1,   115200, 0xe1a1400e
0,       2940,       2940,        1,   115200, 0x45f06952
0,       2960,       2960,        1,   115200, 0xc5163125
0,       2980,       2980,        1,   115200, 0x151da156
0,       3000,       3000,        1,   115200, 0x3f34b048
0,       3020,       3020,        1,   115200, 0xcf7c1e5d
0,       3040,       3040,        1,   115200, 0xed9c4e1c
0,       3060,       3060,        1,   115200, 0x47e06453
0,       3080,       3080,        1,   115200, 0xc8ce6f19
0,       3100,       3100,        1,   115200, 0xac619619
0,       3120,       3120,        1,   115200, 0x64711e2d
0,       3140,       3140,        1,   115200, 0x1f502b52
0,       3160,       3160,        1,   115200, 0x39592c9d
0,       3180,       3180,        1,   115200, 0x7dffb901
0,       3200,       3200,        1,   115200, 0xc75fa3ce
0,       3220,       3220,        1,   115200, 0x625bc977
0,       3240,       3240,        1,   115200, 0x15c7fda3
0,       3260,       3260,        1,   115200, 0x6e5d35b5
0,       3280,       3280,        1,   115200, 0xf847cf88
0,       3300,       3300,        1,   115200, 0xc10867fe
0,       3320,       3320,        1,   115200, 0xae07fbfc
0,       3340,       3340,        1,   115200, 0xc1571542
0,       3360,       3360,        1,   115200, 0x4c7d5602
0,       3380,       3380,        1,   115200, 0xbe7045aa
0,       3400,       3400,        1,   115200, 0xc8b4835b
0,       3420,       3420,        1,   115200, 0xf9b7d427
0,       3440,       3440,        1,   115200, 0x7fa7c112
0,       3460,       3460,        1,   115200, 0xe0105feb
0,       3480,       3480,        1,   115200, 0x70784740
0,       3500,       3500,        1,   115200, 0xa6801ef5
0,       3520,       3520,        1,   115200, 0x9cf35921
0,       3540,       3540,        1,   115200, 0x4d956630
0,       3560,       3560,        1,   115200, 0x717a25c1
0,       3580,       3580,        1,   115200, 0x8f5e39de
